# xmcd CD database file
#
# Track frame offsets:
#	150
#	22391
#	71094
#	109869
#	152260
#	186076
#	218626
#	245160
#	263809
#
# Disc length: 4001 seconds
#
# Revision: 0
# Processed by: cddbd v1.5.1PL0 Copyright (c) Steve Scherf et al.
# Submitted via: CDex 1.51
#
DISCID=800f9f09
DTITLE=david 'bubba' brooks - Polka Dots and Moonbeams
DYEAR=1900
DGENRE=Jazz
TTITLE0=Blue and Semtimental
TTITLE1=Perpetual Motion
TTITLE2=Just Squeeze Me
TTITLE3=Dutch Kitchen Bounce
TTITLE4=Plka Dots and Moonbeams
TTITLE5=Lonnie's Blues
TTITLE6=A Ghost of a Chance
TTITLE7=Things ain't what they used to be
TTITLE8=Don't Blame me
EXTD=
EXTT0=
EXTT1=
EXTT2=
EXTT3=
EXTT4=
EXTT5=
EXTT6=
EXTT7=
EXTT8=
PLAYORDER=
